<mxfile host="app.diagrams.net" modified="2022-03-01T09:17:46.723Z" agent="5.0 (Windows NT 10.0; Win64; x64) AppleWebKit/537.36 (KHTML, like Gecko) Chrome/98.0.4758.102 Safari/537.36" etag="V6o4zcdwA5lMsoekGDBQ" version="16.6.3" type="github">
  <diagram id="c6mJYmaqCusoTaIBJFSl" name="Page-1">
    <mxGraphModel dx="2249" dy="882" grid="1" gridSize="10" guides="1" tooltips="1" connect="1" arrows="1" fold="1" page="1" pageScale="1" pageWidth="827" pageHeight="1169" math="0" shadow="0">
      <root>
        <mxCell id="0" />
        <mxCell id="1" parent="0" />
        <mxCell id="-I1qoJd3Gczy4PTa_OBQ-3" value="Editus.lu webpage" style="swimlane;" parent="1" vertex="1">
          <mxGeometry x="20" y="110" width="380" height="270" as="geometry" />
        </mxCell>
        <mxCell id="-I1qoJd3Gczy4PTa_OBQ-4" value="" style="rounded=0;whiteSpace=wrap;html=1;" parent="-I1qoJd3Gczy4PTa_OBQ-3" vertex="1">
          <mxGeometry x="20" y="50" width="340" height="100" as="geometry" />
        </mxCell>
        <mxCell id="-I1qoJd3Gczy4PTa_OBQ-5" value="X" style="text;html=1;strokeColor=none;fillColor=none;align=center;verticalAlign=middle;whiteSpace=wrap;rounded=0;fontStyle=1;fontSize=18;" parent="-I1qoJd3Gczy4PTa_OBQ-3" vertex="1">
          <mxGeometry x="-10" y="20" width="60" height="30" as="geometry" />
        </mxCell>
        <mxCell id="-I1qoJd3Gczy4PTa_OBQ-6" value="A" style="rounded=0;whiteSpace=wrap;html=1;fontSize=18;" parent="-I1qoJd3Gczy4PTa_OBQ-3" vertex="1">
          <mxGeometry x="30" y="60" width="50" height="20" as="geometry" />
        </mxCell>
        <mxCell id="-I1qoJd3Gczy4PTa_OBQ-7" value="B" style="rounded=0;whiteSpace=wrap;html=1;fontSize=18;" parent="-I1qoJd3Gczy4PTa_OBQ-3" vertex="1">
          <mxGeometry x="30" y="100" width="50" height="20" as="geometry" />
        </mxCell>
        <mxCell id="-I1qoJd3Gczy4PTa_OBQ-8" value="C" style="rounded=0;whiteSpace=wrap;html=1;fontSize=18;" parent="-I1qoJd3Gczy4PTa_OBQ-3" vertex="1">
          <mxGeometry x="105" y="60" width="170" height="70" as="geometry" />
        </mxCell>
        <mxCell id="-I1qoJd3Gczy4PTa_OBQ-10" value="" style="rounded=0;whiteSpace=wrap;html=1;" parent="-I1qoJd3Gczy4PTa_OBQ-3" vertex="1">
          <mxGeometry x="20" y="160" width="340" height="100" as="geometry" />
        </mxCell>
        <mxCell id="-I1qoJd3Gczy4PTa_OBQ-11" value="Y" style="text;html=1;strokeColor=none;fillColor=none;align=center;verticalAlign=middle;whiteSpace=wrap;rounded=0;fontStyle=1;fontSize=18;" parent="-I1qoJd3Gczy4PTa_OBQ-3" vertex="1">
          <mxGeometry x="-20" y="150" width="60" height="30" as="geometry" />
        </mxCell>
        <mxCell id="-I1qoJd3Gczy4PTa_OBQ-12" value="F" style="rounded=0;whiteSpace=wrap;html=1;fontSize=18;" parent="-I1qoJd3Gczy4PTa_OBQ-3" vertex="1">
          <mxGeometry x="30" y="170" width="170" height="70" as="geometry" />
        </mxCell>
        <mxCell id="-I1qoJd3Gczy4PTa_OBQ-13" value="A" style="rounded=0;whiteSpace=wrap;html=1;fontSize=18;" parent="-I1qoJd3Gczy4PTa_OBQ-3" vertex="1">
          <mxGeometry x="220" y="170" width="50" height="20" as="geometry" />
        </mxCell>
        <mxCell id="-I1qoJd3Gczy4PTa_OBQ-14" value="B" style="rounded=0;whiteSpace=wrap;html=1;fontSize=18;" parent="-I1qoJd3Gczy4PTa_OBQ-3" vertex="1">
          <mxGeometry x="220" y="220" width="50" height="20" as="geometry" />
        </mxCell>
        <mxCell id="-I1qoJd3Gczy4PTa_OBQ-15" value="E" style="rounded=0;whiteSpace=wrap;html=1;fontSize=18;" parent="-I1qoJd3Gczy4PTa_OBQ-3" vertex="1">
          <mxGeometry x="290" y="170" width="50" height="80" as="geometry" />
        </mxCell>
        <mxCell id="-I1qoJd3Gczy4PTa_OBQ-16" value="BFF.X" style="rounded=0;whiteSpace=wrap;html=1;fontSize=18;" parent="1" vertex="1">
          <mxGeometry x="470" y="150" width="120" height="60" as="geometry" />
        </mxCell>
        <mxCell id="-I1qoJd3Gczy4PTa_OBQ-17" value="BFF.Y" style="rounded=0;whiteSpace=wrap;html=1;fontSize=18;" parent="1" vertex="1">
          <mxGeometry x="470" y="280" width="120" height="60" as="geometry" />
        </mxCell>
        <mxCell id="-I1qoJd3Gczy4PTa_OBQ-19" value="" style="endArrow=classic;startArrow=classic;html=1;rounded=0;fontSize=18;entryX=0;entryY=0.5;entryDx=0;entryDy=0;exitX=0.997;exitY=0.38;exitDx=0;exitDy=0;exitPerimeter=0;" parent="1" source="-I1qoJd3Gczy4PTa_OBQ-4" target="-I1qoJd3Gczy4PTa_OBQ-16" edge="1">
          <mxGeometry width="50" height="50" relative="1" as="geometry">
            <mxPoint x="390" y="400" as="sourcePoint" />
            <mxPoint x="440" y="350" as="targetPoint" />
          </mxGeometry>
        </mxCell>
        <mxCell id="-I1qoJd3Gczy4PTa_OBQ-20" value="" style="endArrow=classic;startArrow=classic;html=1;rounded=0;fontSize=18;entryX=0;entryY=0.5;entryDx=0;entryDy=0;exitX=1;exitY=0.5;exitDx=0;exitDy=0;" parent="1" source="-I1qoJd3Gczy4PTa_OBQ-10" target="-I1qoJd3Gczy4PTa_OBQ-17" edge="1">
          <mxGeometry width="50" height="50" relative="1" as="geometry">
            <mxPoint x="388.98" y="208" as="sourcePoint" />
            <mxPoint x="480" y="190" as="targetPoint" />
          </mxGeometry>
        </mxCell>
        <mxCell id="-I1qoJd3Gczy4PTa_OBQ-21" value="A" style="rounded=0;whiteSpace=wrap;html=1;fontSize=18;" parent="1" vertex="1">
          <mxGeometry x="740" y="80" width="70" height="40" as="geometry" />
        </mxCell>
        <mxCell id="-I1qoJd3Gczy4PTa_OBQ-22" value="B" style="rounded=0;whiteSpace=wrap;html=1;fontSize=18;" parent="1" vertex="1">
          <mxGeometry x="740" y="140" width="70" height="40" as="geometry" />
        </mxCell>
        <mxCell id="-I1qoJd3Gczy4PTa_OBQ-23" value="C" style="rounded=0;whiteSpace=wrap;html=1;fontSize=18;" parent="1" vertex="1">
          <mxGeometry x="740" y="200" width="70" height="40" as="geometry" />
        </mxCell>
        <mxCell id="-I1qoJd3Gczy4PTa_OBQ-25" value="F" style="rounded=0;whiteSpace=wrap;html=1;fontSize=18;" parent="1" vertex="1">
          <mxGeometry x="740" y="260" width="70" height="40" as="geometry" />
        </mxCell>
        <mxCell id="-I1qoJd3Gczy4PTa_OBQ-26" value="E" style="rounded=0;whiteSpace=wrap;html=1;fontSize=18;" parent="1" vertex="1">
          <mxGeometry x="740" y="320" width="70" height="40" as="geometry" />
        </mxCell>
        <mxCell id="-I1qoJd3Gczy4PTa_OBQ-28" value="" style="endArrow=classic;startArrow=classic;html=1;rounded=0;fontSize=18;entryX=0;entryY=0.5;entryDx=0;entryDy=0;exitX=1;exitY=0.5;exitDx=0;exitDy=0;" parent="1" source="-I1qoJd3Gczy4PTa_OBQ-16" target="-I1qoJd3Gczy4PTa_OBQ-21" edge="1">
          <mxGeometry width="50" height="50" relative="1" as="geometry">
            <mxPoint x="388.98" y="208" as="sourcePoint" />
            <mxPoint x="480" y="190" as="targetPoint" />
          </mxGeometry>
        </mxCell>
        <mxCell id="-I1qoJd3Gczy4PTa_OBQ-29" value="" style="endArrow=classic;startArrow=classic;html=1;rounded=0;fontSize=18;entryX=0;entryY=0.5;entryDx=0;entryDy=0;exitX=0.992;exitY=0.867;exitDx=0;exitDy=0;exitPerimeter=0;" parent="1" source="-I1qoJd3Gczy4PTa_OBQ-16" target="-I1qoJd3Gczy4PTa_OBQ-22" edge="1">
          <mxGeometry width="50" height="50" relative="1" as="geometry">
            <mxPoint x="600" y="190" as="sourcePoint" />
            <mxPoint x="670" y="110" as="targetPoint" />
          </mxGeometry>
        </mxCell>
        <mxCell id="-I1qoJd3Gczy4PTa_OBQ-30" value="" style="endArrow=classic;startArrow=classic;html=1;rounded=0;fontSize=18;entryX=0;entryY=0.5;entryDx=0;entryDy=0;exitX=1;exitY=0.75;exitDx=0;exitDy=0;" parent="1" source="-I1qoJd3Gczy4PTa_OBQ-16" target="-I1qoJd3Gczy4PTa_OBQ-23" edge="1">
          <mxGeometry width="50" height="50" relative="1" as="geometry">
            <mxPoint x="599.04" y="212.01999999999998" as="sourcePoint" />
            <mxPoint x="670" y="170" as="targetPoint" />
          </mxGeometry>
        </mxCell>
        <mxCell id="-I1qoJd3Gczy4PTa_OBQ-31" value="" style="endArrow=classic;startArrow=classic;html=1;rounded=0;fontSize=18;entryX=0;entryY=0.5;entryDx=0;entryDy=0;exitX=1;exitY=0.25;exitDx=0;exitDy=0;" parent="1" source="-I1qoJd3Gczy4PTa_OBQ-17" target="-I1qoJd3Gczy4PTa_OBQ-25" edge="1">
          <mxGeometry width="50" height="50" relative="1" as="geometry">
            <mxPoint x="600" y="205" as="sourcePoint" />
            <mxPoint x="750" y="230" as="targetPoint" />
          </mxGeometry>
        </mxCell>
        <mxCell id="-I1qoJd3Gczy4PTa_OBQ-32" value="" style="endArrow=classic;startArrow=classic;html=1;rounded=0;fontSize=18;entryX=0;entryY=0.5;entryDx=0;entryDy=0;exitX=1;exitY=0.25;exitDx=0;exitDy=0;" parent="1" source="-I1qoJd3Gczy4PTa_OBQ-17" target="-I1qoJd3Gczy4PTa_OBQ-21" edge="1">
          <mxGeometry width="50" height="50" relative="1" as="geometry">
            <mxPoint x="600" y="305" as="sourcePoint" />
            <mxPoint x="750" y="290" as="targetPoint" />
          </mxGeometry>
        </mxCell>
        <mxCell id="-I1qoJd3Gczy4PTa_OBQ-33" value="" style="endArrow=classic;startArrow=classic;html=1;rounded=0;fontSize=18;entryX=0;entryY=0.75;entryDx=0;entryDy=0;exitX=1;exitY=0.5;exitDx=0;exitDy=0;" parent="1" source="-I1qoJd3Gczy4PTa_OBQ-17" target="-I1qoJd3Gczy4PTa_OBQ-22" edge="1">
          <mxGeometry width="50" height="50" relative="1" as="geometry">
            <mxPoint x="600" y="305" as="sourcePoint" />
            <mxPoint x="750" y="110" as="targetPoint" />
          </mxGeometry>
        </mxCell>
        <mxCell id="-I1qoJd3Gczy4PTa_OBQ-34" value="" style="endArrow=classic;startArrow=classic;html=1;rounded=0;fontSize=18;entryX=0;entryY=0.5;entryDx=0;entryDy=0;exitX=1;exitY=0.5;exitDx=0;exitDy=0;" parent="1" source="-I1qoJd3Gczy4PTa_OBQ-17" target="-I1qoJd3Gczy4PTa_OBQ-26" edge="1">
          <mxGeometry width="50" height="50" relative="1" as="geometry">
            <mxPoint x="600" y="320" as="sourcePoint" />
            <mxPoint x="750" y="180" as="targetPoint" />
          </mxGeometry>
        </mxCell>
        <mxCell id="-I1qoJd3Gczy4PTa_OBQ-44" value="BFF.X.REACT" style="rounded=0;whiteSpace=wrap;html=1;fontSize=18;" parent="1" vertex="1">
          <mxGeometry x="420" y="640" width="150" height="60" as="geometry" />
        </mxCell>
        <mxCell id="-I1qoJd3Gczy4PTa_OBQ-45" value="BFF.Y.REACT" style="rounded=0;whiteSpace=wrap;html=1;fontSize=18;" parent="1" vertex="1">
          <mxGeometry x="420" y="770" width="150" height="60" as="geometry" />
        </mxCell>
        <mxCell id="-I1qoJd3Gczy4PTa_OBQ-46" value="" style="endArrow=classic;startArrow=classic;html=1;rounded=0;fontSize=18;entryX=0;entryY=0.5;entryDx=0;entryDy=0;exitX=1.006;exitY=0.36;exitDx=0;exitDy=0;exitPerimeter=0;" parent="1" source="-I1qoJd3Gczy4PTa_OBQ-73" target="-I1qoJd3Gczy4PTa_OBQ-44" edge="1">
          <mxGeometry width="50" height="50" relative="1" as="geometry">
            <mxPoint x="358.98" y="688" as="sourcePoint" />
            <mxPoint x="420" y="840" as="targetPoint" />
          </mxGeometry>
        </mxCell>
        <mxCell id="-I1qoJd3Gczy4PTa_OBQ-47" value="" style="endArrow=classic;startArrow=classic;html=1;rounded=0;fontSize=18;entryX=0;entryY=0.5;entryDx=0;entryDy=0;exitX=1;exitY=0.5;exitDx=0;exitDy=0;" parent="1" source="-I1qoJd3Gczy4PTa_OBQ-78" target="-I1qoJd3Gczy4PTa_OBQ-45" edge="1">
          <mxGeometry width="50" height="50" relative="1" as="geometry">
            <mxPoint x="360" y="810" as="sourcePoint" />
            <mxPoint x="460" y="680" as="targetPoint" />
          </mxGeometry>
        </mxCell>
        <mxCell id="-I1qoJd3Gczy4PTa_OBQ-48" value="A" style="rounded=0;whiteSpace=wrap;html=1;fontSize=18;" parent="1" vertex="1">
          <mxGeometry x="720" y="570" width="70" height="40" as="geometry" />
        </mxCell>
        <mxCell id="-I1qoJd3Gczy4PTa_OBQ-49" value="B" style="rounded=0;whiteSpace=wrap;html=1;fontSize=18;" parent="1" vertex="1">
          <mxGeometry x="720" y="630" width="70" height="40" as="geometry" />
        </mxCell>
        <mxCell id="-I1qoJd3Gczy4PTa_OBQ-50" value="C" style="rounded=0;whiteSpace=wrap;html=1;fontSize=18;" parent="1" vertex="1">
          <mxGeometry x="720" y="690" width="70" height="40" as="geometry" />
        </mxCell>
        <mxCell id="-I1qoJd3Gczy4PTa_OBQ-51" value="F" style="rounded=0;whiteSpace=wrap;html=1;fontSize=18;" parent="1" vertex="1">
          <mxGeometry x="720" y="750" width="70" height="40" as="geometry" />
        </mxCell>
        <mxCell id="-I1qoJd3Gczy4PTa_OBQ-52" value="E" style="rounded=0;whiteSpace=wrap;html=1;fontSize=18;" parent="1" vertex="1">
          <mxGeometry x="720" y="810" width="70" height="40" as="geometry" />
        </mxCell>
        <mxCell id="-I1qoJd3Gczy4PTa_OBQ-53" value="" style="endArrow=classic;startArrow=classic;html=1;rounded=0;fontSize=18;entryX=0;entryY=0.5;entryDx=0;entryDy=0;exitX=1;exitY=0.5;exitDx=0;exitDy=0;" parent="1" source="-I1qoJd3Gczy4PTa_OBQ-44" target="-I1qoJd3Gczy4PTa_OBQ-48" edge="1">
          <mxGeometry width="50" height="50" relative="1" as="geometry">
            <mxPoint x="368.98" y="698" as="sourcePoint" />
            <mxPoint x="460" y="680" as="targetPoint" />
          </mxGeometry>
        </mxCell>
        <mxCell id="-I1qoJd3Gczy4PTa_OBQ-54" value="" style="endArrow=classic;startArrow=classic;html=1;rounded=0;fontSize=18;entryX=0;entryY=0.5;entryDx=0;entryDy=0;exitX=0.992;exitY=0.867;exitDx=0;exitDy=0;exitPerimeter=0;" parent="1" source="-I1qoJd3Gczy4PTa_OBQ-44" target="-I1qoJd3Gczy4PTa_OBQ-49" edge="1">
          <mxGeometry width="50" height="50" relative="1" as="geometry">
            <mxPoint x="580" y="680" as="sourcePoint" />
            <mxPoint x="650" y="600" as="targetPoint" />
          </mxGeometry>
        </mxCell>
        <mxCell id="-I1qoJd3Gczy4PTa_OBQ-55" value="" style="endArrow=classic;startArrow=classic;html=1;rounded=0;fontSize=18;entryX=0;entryY=0.5;entryDx=0;entryDy=0;exitX=1;exitY=0.75;exitDx=0;exitDy=0;" parent="1" source="-I1qoJd3Gczy4PTa_OBQ-44" target="-I1qoJd3Gczy4PTa_OBQ-50" edge="1">
          <mxGeometry width="50" height="50" relative="1" as="geometry">
            <mxPoint x="579.04" y="702.02" as="sourcePoint" />
            <mxPoint x="650" y="660" as="targetPoint" />
          </mxGeometry>
        </mxCell>
        <mxCell id="-I1qoJd3Gczy4PTa_OBQ-56" value="" style="endArrow=classic;startArrow=classic;html=1;rounded=0;fontSize=18;entryX=0;entryY=0.75;entryDx=0;entryDy=0;exitX=1;exitY=0.25;exitDx=0;exitDy=0;" parent="1" source="-I1qoJd3Gczy4PTa_OBQ-45" target="89NNjuzNqjltHJ3HWhli-92" edge="1">
          <mxGeometry width="50" height="50" relative="1" as="geometry">
            <mxPoint x="580" y="695" as="sourcePoint" />
            <mxPoint x="730" y="720" as="targetPoint" />
          </mxGeometry>
        </mxCell>
        <mxCell id="-I1qoJd3Gczy4PTa_OBQ-72" value="Editus.lu webpage (REACT)" style="swimlane;" parent="1" vertex="1">
          <mxGeometry x="-20" y="610" width="380" height="410" as="geometry" />
        </mxCell>
        <mxCell id="-I1qoJd3Gczy4PTa_OBQ-73" value="" style="rounded=0;whiteSpace=wrap;html=1;" parent="-I1qoJd3Gczy4PTa_OBQ-72" vertex="1">
          <mxGeometry x="20" y="50" width="340" height="100" as="geometry" />
        </mxCell>
        <mxCell id="-I1qoJd3Gczy4PTa_OBQ-74" value="X" style="text;html=1;strokeColor=none;fillColor=none;align=center;verticalAlign=middle;whiteSpace=wrap;rounded=0;fontStyle=1;fontSize=18;" parent="-I1qoJd3Gczy4PTa_OBQ-72" vertex="1">
          <mxGeometry x="-10" y="20" width="60" height="30" as="geometry" />
        </mxCell>
        <mxCell id="-I1qoJd3Gczy4PTa_OBQ-75" value="A" style="rounded=0;whiteSpace=wrap;html=1;fontSize=18;" parent="-I1qoJd3Gczy4PTa_OBQ-72" vertex="1">
          <mxGeometry x="30" y="60" width="130" height="70" as="geometry" />
        </mxCell>
        <mxCell id="-I1qoJd3Gczy4PTa_OBQ-76" value="B" style="rounded=0;whiteSpace=wrap;html=1;fontSize=18;" parent="-I1qoJd3Gczy4PTa_OBQ-72" vertex="1">
          <mxGeometry x="170" y="60" width="170" height="70" as="geometry" />
        </mxCell>
        <mxCell id="-I1qoJd3Gczy4PTa_OBQ-78" value="" style="rounded=0;whiteSpace=wrap;html=1;" parent="-I1qoJd3Gczy4PTa_OBQ-72" vertex="1">
          <mxGeometry x="20" y="160" width="340" height="100" as="geometry" />
        </mxCell>
        <mxCell id="-I1qoJd3Gczy4PTa_OBQ-79" value="Y" style="text;html=1;strokeColor=none;fillColor=none;align=center;verticalAlign=middle;whiteSpace=wrap;rounded=0;fontStyle=1;fontSize=18;" parent="-I1qoJd3Gczy4PTa_OBQ-72" vertex="1">
          <mxGeometry x="-20" y="150" width="60" height="30" as="geometry" />
        </mxCell>
        <mxCell id="-I1qoJd3Gczy4PTa_OBQ-80" value="Z" style="rounded=0;whiteSpace=wrap;html=1;fontSize=18;" parent="-I1qoJd3Gczy4PTa_OBQ-72" vertex="1">
          <mxGeometry x="30" y="170" width="310" height="70" as="geometry" />
        </mxCell>
        <mxCell id="-I1qoJd3Gczy4PTa_OBQ-84" value="" style="rounded=0;whiteSpace=wrap;html=1;" parent="-I1qoJd3Gczy4PTa_OBQ-72" vertex="1">
          <mxGeometry x="20" y="270" width="340" height="100" as="geometry" />
        </mxCell>
        <mxCell id="-I1qoJd3Gczy4PTa_OBQ-85" value="T" style="text;html=1;strokeColor=none;fillColor=none;align=center;verticalAlign=middle;whiteSpace=wrap;rounded=0;fontStyle=1;fontSize=18;" parent="-I1qoJd3Gczy4PTa_OBQ-72" vertex="1">
          <mxGeometry x="-20" y="250" width="60" height="30" as="geometry" />
        </mxCell>
        <mxCell id="-I1qoJd3Gczy4PTa_OBQ-87" value="F" style="rounded=0;whiteSpace=wrap;html=1;fontSize=18;" parent="-I1qoJd3Gczy4PTa_OBQ-72" vertex="1">
          <mxGeometry x="30" y="280" width="300" height="70" as="geometry" />
        </mxCell>
        <mxCell id="-I1qoJd3Gczy4PTa_OBQ-88" value="BFF.T.REACT" style="rounded=0;whiteSpace=wrap;html=1;fontSize=18;" parent="1" vertex="1">
          <mxGeometry x="420" y="910" width="150" height="60" as="geometry" />
        </mxCell>
        <mxCell id="-I1qoJd3Gczy4PTa_OBQ-89" value="" style="endArrow=classic;startArrow=classic;html=1;rounded=0;fontSize=18;entryX=-0.013;entryY=0.4;entryDx=0;entryDy=0;exitX=1;exitY=0.5;exitDx=0;exitDy=0;entryPerimeter=0;" parent="1" source="-I1qoJd3Gczy4PTa_OBQ-84" target="-I1qoJd3Gczy4PTa_OBQ-88" edge="1">
          <mxGeometry width="50" height="50" relative="1" as="geometry">
            <mxPoint x="354" y="945" as="sourcePoint" />
            <mxPoint x="414" y="935" as="targetPoint" />
          </mxGeometry>
        </mxCell>
        <mxCell id="-I1qoJd3Gczy4PTa_OBQ-90" value="" style="endArrow=classic;startArrow=classic;html=1;rounded=0;fontSize=18;entryX=0;entryY=0.5;entryDx=0;entryDy=0;exitX=1;exitY=0.5;exitDx=0;exitDy=0;" parent="1" source="-I1qoJd3Gczy4PTa_OBQ-88" target="-I1qoJd3Gczy4PTa_OBQ-51" edge="1">
          <mxGeometry width="50" height="50" relative="1" as="geometry">
            <mxPoint x="580" y="810" as="sourcePoint" />
            <mxPoint x="730" y="840" as="targetPoint" />
          </mxGeometry>
        </mxCell>
        <mxCell id="-I1qoJd3Gczy4PTa_OBQ-92" value="BFF Change when UI change (High couple)" style="text;html=1;strokeColor=none;fillColor=none;align=center;verticalAlign=middle;whiteSpace=wrap;rounded=0;fontSize=18;" parent="1" vertex="1">
          <mxGeometry x="10" y="30" width="400" height="30" as="geometry" />
        </mxCell>
        <mxCell id="-I1qoJd3Gczy4PTa_OBQ-93" value="Domain service change very rarely (NOT LINKED TO UI) -&amp;gt; Quote example" style="text;html=1;strokeColor=none;fillColor=none;align=center;verticalAlign=middle;whiteSpace=wrap;rounded=0;fontSize=18;" parent="1" vertex="1">
          <mxGeometry y="60" width="670" height="30" as="geometry" />
        </mxCell>
        <mxCell id="-I1qoJd3Gczy4PTa_OBQ-94" value="IF BFF.X is broken we lost X component" style="text;html=1;strokeColor=none;fillColor=none;align=center;verticalAlign=middle;whiteSpace=wrap;rounded=0;fontSize=18;" parent="1" vertex="1">
          <mxGeometry x="-20" y="400" width="400" height="30" as="geometry" />
        </mxCell>
        <mxCell id="-I1qoJd3Gczy4PTa_OBQ-95" value="IF A is broken we (potentialy) lost X+Y component" style="text;html=1;strokeColor=none;fillColor=none;align=center;verticalAlign=middle;whiteSpace=wrap;rounded=0;fontSize=18;" parent="1" vertex="1">
          <mxGeometry y="430" width="440" height="30" as="geometry" />
        </mxCell>
        <mxCell id="89NNjuzNqjltHJ3HWhli-61" value="BFF.X.MOBILEAPP" style="rounded=0;whiteSpace=wrap;html=1;fontSize=18;" parent="1" vertex="1">
          <mxGeometry x="350" y="1180" width="190" height="60" as="geometry" />
        </mxCell>
        <mxCell id="89NNjuzNqjltHJ3HWhli-62" value="BFF.Y.MOBILEAPP" style="rounded=0;whiteSpace=wrap;html=1;fontSize=18;" parent="1" vertex="1">
          <mxGeometry x="390" y="1340" width="180" height="60" as="geometry" />
        </mxCell>
        <mxCell id="89NNjuzNqjltHJ3HWhli-63" value="" style="endArrow=classic;startArrow=classic;html=1;rounded=0;fontSize=18;entryX=0;entryY=0.5;entryDx=0;entryDy=0;exitX=1;exitY=0.5;exitDx=0;exitDy=0;" parent="1" source="89NNjuzNqjltHJ3HWhli-78" target="89NNjuzNqjltHJ3HWhli-61" edge="1">
          <mxGeometry width="50" height="50" relative="1" as="geometry">
            <mxPoint x="358.98" y="1218" as="sourcePoint" />
            <mxPoint x="420" y="1370" as="targetPoint" />
          </mxGeometry>
        </mxCell>
        <mxCell id="89NNjuzNqjltHJ3HWhli-64" value="" style="endArrow=classic;startArrow=classic;html=1;rounded=0;fontSize=18;entryX=0;entryY=0.5;entryDx=0;entryDy=0;exitX=1;exitY=0.387;exitDx=0;exitDy=0;exitPerimeter=0;" parent="1" source="89NNjuzNqjltHJ3HWhli-82" target="89NNjuzNqjltHJ3HWhli-62" edge="1">
          <mxGeometry width="50" height="50" relative="1" as="geometry">
            <mxPoint x="360" y="1340" as="sourcePoint" />
            <mxPoint x="460" y="1210" as="targetPoint" />
          </mxGeometry>
        </mxCell>
        <mxCell id="89NNjuzNqjltHJ3HWhli-65" value="A" style="rounded=0;whiteSpace=wrap;html=1;fontSize=18;" parent="1" vertex="1">
          <mxGeometry x="720" y="1100" width="70" height="40" as="geometry" />
        </mxCell>
        <mxCell id="89NNjuzNqjltHJ3HWhli-66" value="B" style="rounded=0;whiteSpace=wrap;html=1;fontSize=18;" parent="1" vertex="1">
          <mxGeometry x="720" y="1160" width="70" height="40" as="geometry" />
        </mxCell>
        <mxCell id="89NNjuzNqjltHJ3HWhli-67" value="C" style="rounded=0;whiteSpace=wrap;html=1;fontSize=18;" parent="1" vertex="1">
          <mxGeometry x="720" y="1220" width="70" height="40" as="geometry" />
        </mxCell>
        <mxCell id="89NNjuzNqjltHJ3HWhli-68" value="F" style="rounded=0;whiteSpace=wrap;html=1;fontSize=18;" parent="1" vertex="1">
          <mxGeometry x="720" y="1280" width="70" height="40" as="geometry" />
        </mxCell>
        <mxCell id="89NNjuzNqjltHJ3HWhli-69" value="E" style="rounded=0;whiteSpace=wrap;html=1;fontSize=18;" parent="1" vertex="1">
          <mxGeometry x="720" y="1340" width="70" height="40" as="geometry" />
        </mxCell>
        <mxCell id="89NNjuzNqjltHJ3HWhli-70" value="" style="endArrow=classic;startArrow=classic;html=1;rounded=0;fontSize=18;entryX=0;entryY=0.5;entryDx=0;entryDy=0;exitX=1;exitY=0.5;exitDx=0;exitDy=0;" parent="1" source="89NNjuzNqjltHJ3HWhli-61" target="89NNjuzNqjltHJ3HWhli-65" edge="1">
          <mxGeometry width="50" height="50" relative="1" as="geometry">
            <mxPoint x="368.98" y="1228" as="sourcePoint" />
            <mxPoint x="460" y="1210" as="targetPoint" />
          </mxGeometry>
        </mxCell>
        <mxCell id="89NNjuzNqjltHJ3HWhli-73" value="" style="endArrow=classic;startArrow=classic;html=1;rounded=0;fontSize=18;entryX=0;entryY=0.5;entryDx=0;entryDy=0;exitX=1;exitY=0.25;exitDx=0;exitDy=0;" parent="1" source="89NNjuzNqjltHJ3HWhli-62" target="89NNjuzNqjltHJ3HWhli-68" edge="1">
          <mxGeometry width="50" height="50" relative="1" as="geometry">
            <mxPoint x="580" y="1225" as="sourcePoint" />
            <mxPoint x="730" y="1250" as="targetPoint" />
          </mxGeometry>
        </mxCell>
        <mxCell id="89NNjuzNqjltHJ3HWhli-77" value="Editus.lu webpage (MOBILE APP)" style="swimlane;" parent="1" vertex="1">
          <mxGeometry x="-20" y="1140" width="240" height="410" as="geometry" />
        </mxCell>
        <mxCell id="89NNjuzNqjltHJ3HWhli-78" value="" style="rounded=0;whiteSpace=wrap;html=1;" parent="89NNjuzNqjltHJ3HWhli-77" vertex="1">
          <mxGeometry x="20" y="50" width="200" height="100" as="geometry" />
        </mxCell>
        <mxCell id="89NNjuzNqjltHJ3HWhli-79" value="X" style="text;html=1;strokeColor=none;fillColor=none;align=center;verticalAlign=middle;whiteSpace=wrap;rounded=0;fontStyle=1;fontSize=18;" parent="89NNjuzNqjltHJ3HWhli-77" vertex="1">
          <mxGeometry x="-10" y="20" width="60" height="30" as="geometry" />
        </mxCell>
        <mxCell id="89NNjuzNqjltHJ3HWhli-80" value="A" style="rounded=0;whiteSpace=wrap;html=1;fontSize=18;" parent="89NNjuzNqjltHJ3HWhli-77" vertex="1">
          <mxGeometry x="30" y="60" width="180" height="70" as="geometry" />
        </mxCell>
        <mxCell id="89NNjuzNqjltHJ3HWhli-82" value="" style="rounded=0;whiteSpace=wrap;html=1;" parent="89NNjuzNqjltHJ3HWhli-77" vertex="1">
          <mxGeometry x="20" y="160" width="200" height="230" as="geometry" />
        </mxCell>
        <mxCell id="89NNjuzNqjltHJ3HWhli-83" value="Y" style="text;html=1;strokeColor=none;fillColor=none;align=center;verticalAlign=middle;whiteSpace=wrap;rounded=0;fontStyle=1;fontSize=18;" parent="89NNjuzNqjltHJ3HWhli-77" vertex="1">
          <mxGeometry x="-20" y="150" width="60" height="30" as="geometry" />
        </mxCell>
        <mxCell id="89NNjuzNqjltHJ3HWhli-84" value="Z" style="rounded=0;whiteSpace=wrap;html=1;fontSize=18;" parent="89NNjuzNqjltHJ3HWhli-77" vertex="1">
          <mxGeometry x="30" y="170" width="180" height="70" as="geometry" />
        </mxCell>
        <mxCell id="89NNjuzNqjltHJ3HWhli-91" value="F" style="rounded=0;whiteSpace=wrap;html=1;fontSize=18;" parent="89NNjuzNqjltHJ3HWhli-77" vertex="1">
          <mxGeometry x="30" y="280" width="180" height="70" as="geometry" />
        </mxCell>
        <mxCell id="89NNjuzNqjltHJ3HWhli-92" value="Z" style="rounded=0;whiteSpace=wrap;html=1;fontSize=18;" parent="1" vertex="1">
          <mxGeometry x="720" y="880" width="70" height="40" as="geometry" />
        </mxCell>
        <mxCell id="89NNjuzNqjltHJ3HWhli-93" value="Z" style="rounded=0;whiteSpace=wrap;html=1;fontSize=18;" parent="1" vertex="1">
          <mxGeometry x="720" y="1400" width="70" height="40" as="geometry" />
        </mxCell>
        <mxCell id="89NNjuzNqjltHJ3HWhli-94" value="" style="endArrow=classic;startArrow=classic;html=1;rounded=0;fontSize=18;entryX=0;entryY=0.25;entryDx=0;entryDy=0;exitX=1;exitY=0.5;exitDx=0;exitDy=0;" parent="1" source="89NNjuzNqjltHJ3HWhli-62" target="89NNjuzNqjltHJ3HWhli-93" edge="1">
          <mxGeometry width="50" height="50" relative="1" as="geometry">
            <mxPoint x="580" y="1365" as="sourcePoint" />
            <mxPoint x="730" y="1310" as="targetPoint" />
          </mxGeometry>
        </mxCell>
      </root>
    </mxGraphModel>
  </diagram>
</mxfile>
